<svg xmlns="http://www.w3.org/2000/svg" xmlns:xlink="http://www.w3.org/1999/xlink" version="1.1" id="Capa_1" x="0px" y="0px" viewBox="0 0 1029.964 1029.964" style="width: 200px; height: 200px; transform-origin: 50% 50%; transform: scaleX(1) scaleY(1) rotate(0deg);" xml:space="preserve" preserveAspectRatio="xMidYMid meet">
<g fill="#FFFFFF" style="fill:#FFFFFF;stroke:none" stroke="none">
	<path d="M791.401,85.642c-18.142,0-32.802,14.705-32.802,32.847s14.484,32.847,32.627,32.847   c71.674,0,129.757,58.303,129.757,129.969v34.659h-812v-34.659c0-71.666,58.09-129.969,129.764-129.969   c18.142,0,32.741-14.705,32.741-32.847s-14.698-32.847-32.84-32.847c-107.896,0-195.664,87.776-195.664,195.664v552.959   c0,107.888,87.655,195.7,195.551,195.7h552.958c107.896,0,195.491-87.812,195.491-195.7V281.305   C986.982,173.418,899.296,85.642,791.401,85.642z M791.491,963.964H238.533c-71.674,0-129.551-58.034-129.551-129.7v-452.3h812   v452.3C920.982,905.93,863.165,963.964,791.491,963.964z" fill="#FFFFFF" style="fill:#FFFFFF;stroke:none" stroke="none"/>
	<path d="M411.385,150.964h205.292c18.142,0,32.847-14.358,32.847-32.5s-14.705-32.5-32.847-32.5H411.385   c-18.142,0-32.847,14.358-32.847,32.5S393.243,150.964,411.385,150.964z" fill="#FFFFFF" style="fill:#FFFFFF;stroke:none" stroke="none"/>
	<path d="M766.585,562.964H263.439c-18.142,0-32.847,14.858-32.847,33s14.705,33,32.847,33h503.146   c18.142,0,32.847-14.858,32.847-33S784.727,562.964,766.585,562.964z" fill="#FFFFFF" style="fill:#FFFFFF;stroke:none" stroke="none"/>
	<path d="M625.262,715.964H410.899c-18.142,0-32.847,14.858-32.847,33s14.705,33,32.847,33h214.363   c18.142,0,32.847-14.858,32.847-33S643.404,715.964,625.262,715.964z" fill="#FFFFFF" style="fill:#FFFFFF;stroke:none" stroke="none"/>
	<path d="M323.982,255.442c18.142,0,33-14.705,33-32.847V32.847c0-18.142-14.858-32.847-33-32.847c-18.142,0-33,14.705-33,32.847   v189.747C290.982,240.737,305.84,255.442,323.982,255.442z" fill="#FFFFFF" style="fill:#FFFFFF;stroke:none" stroke="none"/>
	<path d="M705.982,255.442c18.142,0,33-14.705,33-32.847V32.847c0-18.142-14.858-32.847-33-32.847s-33,14.705-33,32.847v189.747   C672.982,240.737,687.84,255.442,705.982,255.442z" fill="#FFFFFF" style="fill:#FFFFFF;stroke:none" stroke="none"/>
</g>
<g fill="#FFFFFF" style="fill:#FFFFFF;stroke:none" stroke="none">
</g>
<g fill="#FFFFFF" style="fill:#FFFFFF;stroke:none" stroke="none">
</g>
<g fill="#FFFFFF" style="fill:#FFFFFF;stroke:none" stroke="none">
</g>
<g fill="#FFFFFF" style="fill:#FFFFFF;stroke:none" stroke="none">
</g>
<g fill="#FFFFFF" style="fill:#FFFFFF;stroke:none" stroke="none">
</g>
<g fill="#FFFFFF" style="fill:#FFFFFF;stroke:none" stroke="none">
</g>
<g fill="#FFFFFF" style="fill:#FFFFFF;stroke:none" stroke="none">
</g>
<g fill="#FFFFFF" style="fill:#FFFFFF;stroke:none" stroke="none">
</g>
<g fill="#FFFFFF" style="fill:#FFFFFF;stroke:none" stroke="none">
</g>
<g fill="#FFFFFF" style="fill:#FFFFFF;stroke:none" stroke="none">
</g>
<g fill="#FFFFFF" style="fill:#FFFFFF;stroke:none" stroke="none">
</g>
<g fill="#FFFFFF" style="fill:#FFFFFF;stroke:none" stroke="none">
</g>
<g fill="#FFFFFF" style="fill:#FFFFFF;stroke:none" stroke="none">
</g>
<g fill="#FFFFFF" style="fill:#FFFFFF;stroke:none" stroke="none">
</g>
<g fill="#FFFFFF" style="fill:#FFFFFF;stroke:none" stroke="none">
</g>
</svg>